<mxfile host="app.diagrams.net" agent="Mozilla/5.0 (Macintosh; Intel Mac OS X 10_15_7) AppleWebKit/537.36 (KHTML, like Gecko) Chrome/132.0.0.0 Safari/537.36" version="26.0.4">
  <diagram name="Page-1" id="S8FyIIHlPzOr1TNchbIG">
    <mxGraphModel dx="1770" dy="581" grid="1" gridSize="10" guides="1" tooltips="1" connect="1" arrows="1" fold="1" page="1" pageScale="1" pageWidth="850" pageHeight="1100" math="0" shadow="0">
      <root>
        <mxCell id="0" />
        <mxCell id="1" parent="0" />
        <mxCell id="o_sa3MoW5a0CHOQ6UXBQ-1" value="" style="swimlane;startSize=0;" vertex="1" parent="1">
          <mxGeometry x="30" y="300" width="90" height="55" as="geometry" />
        </mxCell>
        <mxCell id="o_sa3MoW5a0CHOQ6UXBQ-2" value="Client&lt;div&gt;Web Application&lt;/div&gt;&lt;div&gt;Mobile&lt;/div&gt;" style="text;html=1;align=center;verticalAlign=middle;resizable=0;points=[];autosize=1;strokeColor=none;fillColor=none;" vertex="1" parent="o_sa3MoW5a0CHOQ6UXBQ-1">
          <mxGeometry x="-10" y="-2.5" width="110" height="60" as="geometry" />
        </mxCell>
        <mxCell id="o_sa3MoW5a0CHOQ6UXBQ-5" value="" style="edgeStyle=orthogonalEdgeStyle;rounded=0;orthogonalLoop=1;jettySize=auto;html=1;" edge="1" parent="1" source="o_sa3MoW5a0CHOQ6UXBQ-2">
          <mxGeometry relative="1" as="geometry">
            <mxPoint x="215" y="327.5" as="targetPoint" />
          </mxGeometry>
        </mxCell>
        <mxCell id="o_sa3MoW5a0CHOQ6UXBQ-6" value="Load Balancer" style="rounded=0;whiteSpace=wrap;html=1;" vertex="1" parent="1">
          <mxGeometry x="215" y="267.5" width="65" height="120" as="geometry" />
        </mxCell>
        <mxCell id="o_sa3MoW5a0CHOQ6UXBQ-7" value="&lt;b&gt;&lt;i&gt;Functional Requirements:&lt;/i&gt;&lt;/b&gt;&lt;div&gt;- Create an account and login&lt;/div&gt;&lt;div&gt;- Create, edit, delete tweets (basics CRUD operations)&lt;/div&gt;&lt;div&gt;- Follow other users&lt;/div&gt;&lt;div&gt;- View the timeline of the tweets from following&amp;nbsp;&lt;/div&gt;&lt;div&gt;- Like, reply &amp;amp; retweet&lt;/div&gt;&lt;div&gt;- Search for tweets&lt;/div&gt;" style="text;html=1;align=center;verticalAlign=middle;resizable=0;points=[];autosize=1;strokeColor=none;fillColor=none;" vertex="1" parent="1">
          <mxGeometry x="-320" y="90" width="310" height="110" as="geometry" />
        </mxCell>
        <mxCell id="o_sa3MoW5a0CHOQ6UXBQ-8" value="&lt;b&gt;Non-Functional Requirements:&lt;/b&gt;&lt;div&gt;- &lt;b&gt;Scalability&lt;/b&gt;: scale up to 100+ million users&lt;/div&gt;&lt;div&gt;- Handle a high volume of tweets, likes &amp;amp; retweets&lt;/div&gt;&lt;div&gt;&lt;span style=&quot;background-color: transparent; color: light-dark(rgb(0, 0, 0), rgb(255, 255, 255));&quot;&gt;- &lt;/span&gt;&lt;b style=&quot;background-color: transparent; color: light-dark(rgb(0, 0, 0), rgb(255, 255, 255));&quot;&gt;Reliability&lt;/b&gt;&lt;span style=&quot;background-color: transparent; color: light-dark(rgb(0, 0, 0), rgb(255, 255, 255));&quot;&gt;: the system should be up (high-available) 99,999% of time&lt;/span&gt;&lt;/div&gt;&lt;div&gt;&lt;div&gt;- &lt;b&gt;Security&lt;/b&gt;: Ensure security &amp;amp; privacy of user data&lt;/div&gt;&lt;div&gt;&lt;div&gt;- &lt;b&gt;High Performance&lt;/b&gt;:&amp;nbsp;&lt;span style=&quot;background-color: transparent; color: light-dark(rgb(0, 0, 0), rgb(255, 255, 255));&quot;&gt;Low Latency&lt;/span&gt;&lt;/div&gt;&lt;div&gt;&lt;span style=&quot;background-color: transparent; color: light-dark(rgb(0, 0, 0), rgb(255, 255, 255));&quot;&gt;&lt;br&gt;&lt;/span&gt;&lt;/div&gt;&lt;/div&gt;&lt;/div&gt;" style="text;html=1;align=center;verticalAlign=middle;resizable=0;points=[];autosize=1;strokeColor=none;fillColor=none;" vertex="1" parent="1">
          <mxGeometry x="-375" y="200" width="400" height="110" as="geometry" />
        </mxCell>
        <mxCell id="o_sa3MoW5a0CHOQ6UXBQ-9" value="&lt;div style=&quot;&quot;&gt;&lt;br&gt;&lt;/div&gt;" style="text;html=1;align=center;verticalAlign=middle;resizable=0;points=[];autosize=1;strokeColor=none;fillColor=none;rotation=0;imageWidth=55;imageHeight=10;perimeter=none;" vertex="1" parent="1">
          <mxGeometry x="225" y="445" width="20" height="30" as="geometry" />
        </mxCell>
        <mxCell id="o_sa3MoW5a0CHOQ6UXBQ-18" value="&lt;div style=&quot;text-wrap-mode: nowrap;&quot;&gt;&lt;span style=&quot;text-wrap-mode: wrap; color: light-dark(rgb(0, 0, 0), rgb(255, 255, 255)); background-color: light-dark(#ffffff, var(--ge-dark-color, #121212));&quot;&gt;Routing algorithm: Round Robin&lt;/span&gt;&lt;/div&gt;&lt;div style=&quot;text-wrap-mode: nowrap; line-height: 12px;&quot;&gt;&lt;span style=&quot;text-wrap-mode: wrap; background-color: light-dark(#ffffff, var(--ge-dark-color, #121212));&quot;&gt;Type: Layer 7 (application)&lt;/span&gt;&lt;/div&gt;" style="rounded=0;whiteSpace=wrap;html=1;fillColor=default;strokeColor=none;" vertex="1" parent="1">
          <mxGeometry x="156.25" y="400" width="182.5" height="20" as="geometry" />
        </mxCell>
      </root>
    </mxGraphModel>
  </diagram>
</mxfile>
